<?xml version="1.0" encoding="utf-8"?>
<!-- Generator: Adobe Illustrator 16.0.2, SVG Export Plug-In . SVG Version: 6.00 Build 0)  -->
<!DOCTYPE svg PUBLIC "-//W3C//DTD SVG 1.1//EN" "http://www.w3.org/Graphics/SVG/1.1/DTD/svg11.dtd">
<svg version="1.1" id="Layer_2" xmlns="http://www.w3.org/2000/svg" xmlns:xlink="http://www.w3.org/1999/xlink" x="0px" y="0px"
	 width="2737.36px" height="696.104px" viewBox="0 0 2737.36 696.104" enable-background="new 0 0 2737.36 696.104"
	 xml:space="preserve">
<g>
	<linearGradient id="SVGID_1_" gradientUnits="userSpaceOnUse" x1="299.5708" y1="611.457" x2="477.5181" y2="-31.4507">
		<stop  offset="0" style="stop-color:#1B1F8A"/>
		<stop  offset="0.1606" style="stop-color:#1A3D98"/>
		<stop  offset="0.3762" style="stop-color:#1A62AA"/>
		<stop  offset="0.5755" style="stop-color:#1980B8"/>
		<stop  offset="0.7523" style="stop-color:#1996C2"/>
		<stop  offset="0.8998" style="stop-color:#18A3C9"/>
		<stop  offset="1" style="stop-color:#18A8CB"/>
	</linearGradient>
	<path fill="url(#SVGID_1_)" d="M450.952,251.185c-23.739-23.739-62.364-23.739-86.103,0l-14.233,14.233
		c-7.561,7.563-7.561,19.822,0,27.385c7.562,7.561,19.824,7.561,27.385,0l14.234-14.233c8.638-8.638,22.694-8.638,31.333,0.003
		c8.639,8.639,8.637,22.692-0.001,31.331L255.419,478.048c-7.562,7.563-7.562,19.824,0,27.387c7.563,7.563,19.822,7.563,27.386,0
		l168.146-168.146C474.69,313.55,474.692,274.927,450.952,251.185z"/>
	<linearGradient id="SVGID_2_" gradientUnits="userSpaceOnUse" x1="210.0645" y1="586.6846" x2="388.0119" y2="-56.2236">
		<stop  offset="0" style="stop-color:#1B1F8A"/>
		<stop  offset="0.1606" style="stop-color:#1A3D98"/>
		<stop  offset="0.3762" style="stop-color:#1A62AA"/>
		<stop  offset="0.5755" style="stop-color:#1980B8"/>
		<stop  offset="0.7523" style="stop-color:#1996C2"/>
		<stop  offset="0.8998" style="stop-color:#18A3C9"/>
		<stop  offset="1" style="stop-color:#18A8CB"/>
	</linearGradient>
	<path fill="url(#SVGID_2_)" d="M224.087,446.72l85.387-85.391c8.457,0.693,17.148-2.191,23.62-8.661
		c11.691-11.69,11.692-30.648,0-42.343c-11.695-11.692-30.65-11.69-42.343,0c-6.471,6.47-9.353,15.164-8.664,23.624l-85.385,85.383
		c-7.563,7.563-7.562,19.825,0,27.388C204.264,454.28,216.523,454.28,224.087,446.72z"/>
	<linearGradient id="SVGID_3_" gradientUnits="userSpaceOnUse" x1="411.3828" y1="642.4033" x2="589.3293" y2="-0.5013">
		<stop  offset="0" style="stop-color:#1B1F8A"/>
		<stop  offset="0.1606" style="stop-color:#1A3D98"/>
		<stop  offset="0.3762" style="stop-color:#1A62AA"/>
		<stop  offset="0.5755" style="stop-color:#1980B8"/>
		<stop  offset="0.7523" style="stop-color:#1996C2"/>
		<stop  offset="0.8998" style="stop-color:#18A3C9"/>
		<stop  offset="1" style="stop-color:#18A8CB"/>
	</linearGradient>
	<path fill="url(#SVGID_3_)" d="M575.668,369.852c-3.14,10.223,2.601,21.059,12.825,24.198c7.095,2.181,14.487,0.081,19.393-4.826
		c2.163-2.16,3.842-4.871,4.804-7.997c25.465-82.895,3.222-172.452-58.05-233.726c-27.494-27.492-61.615-47.813-98.68-58.769
		c-10.256-3.03-21.032,2.824-24.061,13.08c-3.033,10.255,2.826,21.026,13.081,24.061c30.888,9.128,59.337,26.078,82.274,49.015
		C578.361,225.995,596.913,300.702,575.668,369.852z"/>
	<linearGradient id="SVGID_4_" gradientUnits="userSpaceOnUse" x1="127.2964" y1="563.7754" x2="305.2437" y2="-79.1324">
		<stop  offset="0" style="stop-color:#1B1F8A"/>
		<stop  offset="0.1606" style="stop-color:#1A3D98"/>
		<stop  offset="0.3762" style="stop-color:#1A62AA"/>
		<stop  offset="0.5755" style="stop-color:#1980B8"/>
		<stop  offset="0.7523" style="stop-color:#1996C2"/>
		<stop  offset="0.8998" style="stop-color:#18A3C9"/>
		<stop  offset="1" style="stop-color:#18A8CB"/>
	</linearGradient>
	<path fill="url(#SVGID_4_)" d="M102.126,324.758l149.872-149.874c23.396-23.396,51.814-40.182,83.115-49.261
		c11.728,8.791,28.434,7.855,39.1-2.81c11.691-11.69,11.693-30.647,0-42.342c-11.694-11.692-30.649-11.69-42.344,0
		c-2.217,2.219-4.012,4.696-5.388,7.341c-38.412,10.731-73.275,31.091-101.869,59.688L74.742,297.37
		c-7.564,7.563-7.563,19.825,0,27.388C82.303,332.32,94.563,332.32,102.126,324.758z"/>
	<linearGradient id="SVGID_5_" gradientUnits="userSpaceOnUse" x1="542.1284" y1="678.5947" x2="720.0755" y2="35.6879">
		<stop  offset="0" style="stop-color:#1B1F8A"/>
		<stop  offset="0.1606" style="stop-color:#1A3D98"/>
		<stop  offset="0.3762" style="stop-color:#1A62AA"/>
		<stop  offset="0.5755" style="stop-color:#1980B8"/>
		<stop  offset="0.7523" style="stop-color:#1996C2"/>
		<stop  offset="0.8998" style="stop-color:#18A3C9"/>
		<stop  offset="1" style="stop-color:#18A8CB"/>
	</linearGradient>
	<path fill="url(#SVGID_5_)" d="M623.853,144.676c-9.034,5.733-11.707,17.697-5.979,26.727
		c69.74,109.931,53.431,256.646-38.776,348.852l-19.702,19.706c-7.563,7.559-7.562,19.82,0,27.383
		c7.562,7.563,19.823,7.563,27.386,0l19.701-19.701c26.355-26.357,47.681-56.68,63.385-90.127
		c15.173-32.321,24.758-66.794,28.485-102.455c7.472-71.468-9.494-144.062-47.776-204.403
		C644.847,141.625,632.883,138.948,623.853,144.676z"/>
	<linearGradient id="SVGID_6_" gradientUnits="userSpaceOnUse" x1="-5.4385" y1="527.04" x2="172.5103" y2="-115.8731">
		<stop  offset="0" style="stop-color:#1B1F8A"/>
		<stop  offset="0.1606" style="stop-color:#1A3D98"/>
		<stop  offset="0.3762" style="stop-color:#1A62AA"/>
		<stop  offset="0.5755" style="stop-color:#1980B8"/>
		<stop  offset="0.7523" style="stop-color:#1996C2"/>
		<stop  offset="0.8998" style="stop-color:#18A3C9"/>
		<stop  offset="1" style="stop-color:#18A8CB"/>
	</linearGradient>
	<path fill="url(#SVGID_6_)" d="M41.145,263.776L162.179,142.74c7.563-7.562,7.563-19.821,0-27.384
		c-7.562-7.562-19.822-7.562-27.385,0L13.76,236.392c-7.562,7.56-7.562,19.822,0,27.385
		C21.323,271.339,33.583,271.339,41.145,263.776z"/>
	<linearGradient id="SVGID_7_" gradientUnits="userSpaceOnUse" x1="255.5645" y1="599.2725" x2="433.5102" y2="-43.6295">
		<stop  offset="0" style="stop-color:#1B1F8A"/>
		<stop  offset="0.1606" style="stop-color:#1A3D98"/>
		<stop  offset="0.3762" style="stop-color:#1A62AA"/>
		<stop  offset="0.5755" style="stop-color:#1980B8"/>
		<stop  offset="0.7523" style="stop-color:#1996C2"/>
		<stop  offset="0.8998" style="stop-color:#18A3C9"/>
		<stop  offset="1" style="stop-color:#18A8CB"/>
	</linearGradient>
	<path fill="url(#SVGID_7_)" d="M579.5,71.559c-22.361-17.847-46.898-32.545-73.216-43.8
		C473.811,13.871,439.414,5.511,404.044,2.908C338.741-1.891,273.049,13.675,217.169,46.87c-9.927-2.561-20.909,0.038-28.685,7.811
		c-11.691,11.693-11.691,30.651,0,42.343c11.694,11.691,30.651,11.691,42.344,0c5.136-5.136,8.014-11.674,8.638-18.383
		c99.879-58.276,224.296-49.301,314.826,22.336c-0.036,7.708,2.884,15.43,8.767,21.313c11.692,11.692,30.649,11.692,42.341,0
		c11.694-11.692,11.694-30.65,0-42.341C598.346,72.894,588.651,70.103,579.5,71.559z"/>
	<linearGradient id="SVGID_8_" gradientUnits="userSpaceOnUse" x1="486.8823" y1="663.3037" x2="664.8303" y2="20.3938">
		<stop  offset="0" style="stop-color:#1B1F8A"/>
		<stop  offset="0.1606" style="stop-color:#1A3D98"/>
		<stop  offset="0.3762" style="stop-color:#1A62AA"/>
		<stop  offset="0.5755" style="stop-color:#1980B8"/>
		<stop  offset="0.7523" style="stop-color:#1996C2"/>
		<stop  offset="0.8998" style="stop-color:#18A3C9"/>
		<stop  offset="1" style="stop-color:#18A8CB"/>
	</linearGradient>
	<path fill="url(#SVGID_8_)" d="M503.312,581.081c-6.47,6.47-9.351,15.165-8.664,23.62l-56.288,56.29
		c-7.562,7.562-7.562,19.822,0,27.385c7.562,7.561,19.823,7.564,27.385,0l56.29-56.291c8.457,0.692,17.15-2.191,23.62-8.661
		c11.692-11.692,11.692-30.648,0-42.343C533.96,569.389,515.005,569.39,503.312,581.081z"/>
	<linearGradient id="SVGID_9_" gradientUnits="userSpaceOnUse" x1="339.519" y1="622.5166" x2="517.4688" y2="-20.3998">
		<stop  offset="0" style="stop-color:#1B1F8A"/>
		<stop  offset="0.1606" style="stop-color:#1A3D98"/>
		<stop  offset="0.3762" style="stop-color:#1A62AA"/>
		<stop  offset="0.5755" style="stop-color:#1980B8"/>
		<stop  offset="0.7523" style="stop-color:#1996C2"/>
		<stop  offset="0.8998" style="stop-color:#18A3C9"/>
		<stop  offset="1" style="stop-color:#18A8CB"/>
	</linearGradient>
	<path fill="url(#SVGID_9_)" d="M364.576,490.854l-48.177,48.177c-7.562,7.561-7.562,19.821,0,27.384s19.824,7.563,27.385,0
		l48.176-48.177c8.458,0.689,17.15-2.191,23.62-8.663c11.692-11.689,11.695-30.646,0-42.34c-11.692-11.693-30.649-11.693-42.341,0
		C366.769,473.704,363.884,482.399,364.576,490.854z"/>
	<linearGradient id="SVGID_10_" gradientUnits="userSpaceOnUse" x1="434.4028" y1="648.7773" x2="612.3499" y2="5.8707">
		<stop  offset="0" style="stop-color:#1B1F8A"/>
		<stop  offset="0.1606" style="stop-color:#1A3D98"/>
		<stop  offset="0.3762" style="stop-color:#1A62AA"/>
		<stop  offset="0.5755" style="stop-color:#1980B8"/>
		<stop  offset="0.7523" style="stop-color:#1996C2"/>
		<stop  offset="0.8998" style="stop-color:#18A3C9"/>
		<stop  offset="1" style="stop-color:#18A8CB"/>
	</linearGradient>
	<path fill="url(#SVGID_10_)" d="M420.906,611.256L554.64,477.524c4.69-4.691,9.232-9.636,13.497-14.686
		c6.896-8.178,5.86-20.395-2.314-27.289c-8.173-6.897-20.379-5.868-27.287,2.313c-3.563,4.224-7.359,8.352-11.282,12.274
		L393.521,583.87c-8.456-0.688-17.149,2.191-23.62,8.662c-11.692,11.693-11.693,30.648,0,42.343
		c11.693,11.691,30.649,11.691,42.343,0C418.713,628.404,421.597,619.709,420.906,611.256z"/>
	<linearGradient id="SVGID_11_" gradientUnits="userSpaceOnUse" x1="261.9761" y1="601.0527" x2="439.9235" y2="-41.8553">
		<stop  offset="0" style="stop-color:#1B1F8A"/>
		<stop  offset="0.1606" style="stop-color:#1A3D98"/>
		<stop  offset="0.3762" style="stop-color:#1A62AA"/>
		<stop  offset="0.5755" style="stop-color:#1980B8"/>
		<stop  offset="0.7523" style="stop-color:#1996C2"/>
		<stop  offset="0.8998" style="stop-color:#18A3C9"/>
		<stop  offset="1" style="stop-color:#18A8CB"/>
	</linearGradient>
	<path fill="url(#SVGID_11_)" d="M170.585,393.214c6.469-6.468,9.352-15.162,8.662-23.619l142.87-142.869
		c42.261-42.263,111.028-42.263,153.293,0.005c42.261,42.261,42.261,111.026,0,153.288l-40.538,40.539
		c-7.563,7.563-7.563,19.824,0,27.387c7.562,7.561,19.823,7.561,27.385,0l40.538-40.538c57.361-57.363,57.361-150.701,0-208.063
		c-57.365-57.366-150.702-57.366-208.063-0.002l-142.87,142.87c-8.457-0.69-17.15,2.19-23.621,8.661
		c-11.691,11.693-11.693,30.647,0,42.341C139.936,404.909,158.892,404.909,170.585,393.214z"/>
</g>
<g>
	<path fill="#242424" d="M987.318,454.452h-0.787c-5.773,9.443-13.645,16.465-23.611,21.054c-9.972,4.584-20.333,7.145-31.088,7.675
		c-1.05,0.256-2.103,0.393-3.147,0.393c-1.052,0-2.104,0-3.149,0c-29.908,0-54.373-10.689-73.391-32.072
		c-19.025-21.376-28.53-46.496-28.53-75.36c0-28.854,9.377-53.973,28.137-75.358c18.752-21.378,43.089-32.071,72.996-32.071
		c1.312,0,2.621,0,3.937,0c1.309,0,2.618,0.137,3.935,0.394c10.23,0.787,20.265,3.342,30.103,7.677
		c9.839,4.325,18.035,10.426,24.595,18.296V150.262h71.622v326.62h-71.622V454.452z M909.796,344.464
		c-8.136,9.054-12.199,19.743-12.199,32.073c0,12.856,4.063,23.608,12.199,32.266c8.128,8.659,19.411,12.984,33.842,12.984
		c14.689,0,26.034-4.346,34.04-13.04c7.999-8.695,12.002-19.495,12.002-32.407c0-12.386-4.003-23.12-12.002-32.21
		c-8.006-9.086-19.351-13.638-34.04-13.638C929.207,330.756,917.924,335.412,909.796,344.464z"/>
	<path fill="#242424" d="M1167.94,169.546c7.872,7.867,11.806,17.316,11.806,28.334c0,11.017-3.935,20.459-11.806,28.334
		c-7.871,7.869-17.315,11.804-28.334,11.804c-11.017,0-20.462-3.935-28.333-11.804c-7.871-7.875-11.804-17.317-11.804-28.334
		c0-11.125,3.933-20.66,11.804-28.61c7.87-7.946,17.315-11.921,28.333-11.921C1150.625,157.612,1160.069,161.675,1167.94,169.546z
		 M1175.418,476.882h-71.623V275.007h71.623V476.882z"/>
	<path fill="#242424" d="M1444.183,457.207c0,43.022-10.169,73.846-30.496,92.476c-20.333,18.627-49.129,27.938-86.378,27.938
		c-4.986,0-10.231-0.264-15.741-0.787c-5.509-0.525-11.018-1.442-16.527-2.753c-19.417-4.201-37.453-12.336-54.108-24.398
		c-16.664-12.069-26.169-28.469-28.531-49.189h80.278c1.045,3.669,2.754,6.752,5.115,9.249c2.361,2.489,5.116,4.526,8.264,6.099
		c1.833,1.046,3.8,1.901,5.902,2.559c2.097,0.651,4.195,1.112,6.297,1.376c1.31,0.26,2.687,0.458,4.131,0.59
		c1.439,0.128,2.816,0.196,4.132,0.196c19.411,0,31.937-5.575,37.581-16.724c5.639-11.153,8.461-24.729,8.461-40.728v-9.84
		c-9.186,9.443-18.827,16.4-28.922,20.856c-10.103,4.46-21.841,6.69-35.221,6.69c-29.384,0-53.322-9.838-71.816-29.514
		c-18.496-19.674-27.742-44.072-27.742-73.194c0-29.643,9.504-55.29,28.528-76.933c19.018-21.645,44.007-32.466,74.965-32.466
		c11.807,0,22.886,2.165,33.254,6.493c10.36,4.328,19.085,11.48,26.17,21.449l0.785-0.394v-21.253h71.619V457.207z
		 M1295.042,342.888c-8.136,9.052-12.2,19.747-12.2,32.073c0,12.857,4.064,23.61,12.2,32.271
		c8.128,8.655,19.412,12.984,33.842,12.984c14.689,0,26.034-4.347,34.04-13.044c8-8.693,12.002-19.497,12.002-32.405
		c0-12.386-4.002-23.121-12.002-32.211c-8.006-9.085-19.351-13.636-34.04-13.636C1314.454,329.185,1303.169,333.84,1295.042,342.888
		z"/>
	<path fill="#242424" d="M1553.184,169.546c7.869,7.867,11.804,17.316,11.804,28.334c0,11.017-3.935,20.459-11.804,28.334
		c-7.872,7.869-17.316,11.804-28.334,11.804s-20.463-3.935-28.333-11.804c-7.871-7.875-11.806-17.317-11.806-28.334
		c0-11.125,3.935-20.66,11.806-28.61c7.87-7.946,17.314-11.921,28.333-11.921C1535.868,157.612,1545.313,161.675,1553.184,169.546z
		 M1560.66,476.882h-71.62V275.007h71.62V476.882z"/>
	<path fill="#242424" d="M1686.188,476.882h-71.621V334.037h-23.217v-59.03h23.217v-60.601h71.621v60.601h40.532v59.03h-40.532
		V476.882z"/>
	<path fill="#242424" d="M1970.301,476.882h-71.621v-22.43h-0.788c-5.772,9.443-13.644,16.465-23.61,21.054
		c-9.974,4.584-20.334,7.145-31.088,7.675c-1.052,0.256-2.104,0.393-3.147,0.393c-1.053,0-2.103,0-3.149,0
		c-29.907,0-54.372-10.689-73.39-32.072c-19.024-21.376-28.531-46.496-28.531-75.36c0-28.854,9.377-53.973,28.138-75.358
		c18.752-21.378,43.089-32.071,72.996-32.071c1.311,0,2.62,0,3.937,0c1.308,0,2.618,0.137,3.934,0.394
		c10.231,0.787,20.266,3.342,30.104,7.677c9.837,4.325,18.035,10.426,24.595,18.296v-20.07h71.621V476.882z M1821.157,344.464
		c-8.135,9.054-12.199,19.743-12.199,32.073c0,12.856,4.064,23.608,12.199,32.266c8.128,8.659,19.411,12.984,33.841,12.984
		c14.69,0,26.034-4.346,34.041-13.04c7.999-8.695,12.002-19.495,12.002-32.407c0-12.386-4.003-23.12-12.002-32.21
		c-8.007-9.086-19.35-13.638-34.041-13.638C1840.568,330.756,1829.285,335.412,1821.157,344.464z"/>
	<path fill="#242424" d="M2089.534,476.882h-71.622v-326.62h71.622V476.882z"/>
	<path fill="#242424" d="M2170.985,180.171h75.95l60.207,158.588l63.751-158.588h76.736l44.858,296.711h-77.128l-21.642-170.786
		h-0.788l-71.227,170.786h-30.693l-68.08-170.786h-0.787l-24.79,170.786h-76.738L2170.985,180.171z"/>
	<path fill="#242424" d="M2730.956,380.471v7.477H2580.24c0,14.694,3.798,25.91,11.412,33.646
		c7.605,7.744,18.752,11.607,33.447,11.607c7.604,0,14.229-1.439,19.871-4.327c5.641-2.884,10.429-7.604,14.365-14.163h68.865
		c-5.772,24.002-18.563,41.478-38.367,52.432c-19.813,10.951-41.26,16.432-64.341,16.432c-33.32,0-61.131-9.112-83.427-27.351
		c-22.3-18.231-33.449-44.796-33.449-79.686c0-33.58,10.43-59.945,31.286-79.099c20.858-19.146,47.676-28.728,80.475-28.728
		c35.151,0,62.371,10.104,81.654,30.3c19.284,20.207,28.924,47.487,28.924,81.852V380.471z M2664.452,346.628
		c-1.839-9.444-6.629-17.051-14.365-22.824c-7.739-5.766-16.466-8.657-26.171-8.657c-10.493,0-19.673,2.656-27.544,7.969
		c-7.868,5.312-12.858,13.152-14.953,23.513H2664.452z"/>
</g>
</svg>
