<?xml version="1.0" encoding="utf-8"?>
<!-- Generator: Adobe Illustrator 16.0.2, SVG Export Plug-In . SVG Version: 6.00 Build 0)  -->
<!DOCTYPE svg PUBLIC "-//W3C//DTD SVG 1.1//EN" "http://www.w3.org/Graphics/SVG/1.1/DTD/svg11.dtd">
<svg version="1.1" id="Layer_2" xmlns="http://www.w3.org/2000/svg" xmlns:xlink="http://www.w3.org/1999/xlink" x="0px" y="0px"
	 width="356.367px" height="86.997px" viewBox="0 0 356.367 86.997" enable-background="new 0 0 356.367 86.997"
	 xml:space="preserve">
<g>
	<g>
		<path fill="#FFFFFF" d="M121.384,61.554h-0.105c-0.775,1.269-1.832,2.209-3.171,2.825c-1.339,0.615-2.729,0.959-4.174,1.029
			c-0.141,0.035-0.281,0.053-0.422,0.053c-0.142,0-0.283,0-0.423,0c-4.016,0-7.3-1.435-9.854-4.305
			c-2.554-2.871-3.83-6.242-3.83-10.117s1.26-7.247,3.777-10.118c2.519-2.869,5.785-4.306,9.801-4.306c0.177,0,0.353,0,0.528,0
			s0.352,0.018,0.528,0.054c1.373,0.104,2.721,0.448,4.041,1.029c1.32,0.582,2.421,1.4,3.303,2.458V20.714H131v43.85h-9.615
			L121.384,61.554L121.384,61.554z M110.976,46.786c-1.092,1.217-1.638,2.65-1.638,4.307c0,1.727,0.546,3.171,1.638,4.332
			c1.092,1.162,2.605,1.744,4.543,1.744c1.974,0,3.495-0.584,4.57-1.752c1.074-1.166,1.611-2.617,1.611-4.352
			c0-1.663-0.537-3.104-1.611-4.322c-1.075-1.222-2.598-1.832-4.57-1.832C113.582,44.945,112.068,45.571,110.976,46.786z"/>
		<path fill="#FFFFFF" d="M145.633,23.303c1.057,1.057,1.584,2.325,1.584,3.804s-0.527,2.748-1.584,3.805
			c-1.058,1.056-2.325,1.584-3.805,1.584c-1.48,0-2.747-0.528-3.804-1.584c-1.058-1.057-1.585-2.325-1.585-3.805
			c0-1.493,0.527-2.772,1.585-3.841c1.057-1.067,2.323-1.601,3.804-1.601C143.308,21.701,144.576,22.246,145.633,23.303z
			 M146.636,64.563h-9.615V37.461h9.615V64.563z"/>
		<path fill="#FFFFFF" d="M182.72,61.922c0,5.777-1.365,9.914-4.094,12.416c-2.73,2.5-6.598,3.752-11.598,3.752
			c-0.67,0-1.374-0.036-2.113-0.107c-0.739-0.068-1.479-0.191-2.22-0.369c-2.605-0.564-5.027-1.654-7.265-3.275
			c-2.236-1.621-3.513-3.821-3.83-6.604h10.778c0.14,0.493,0.369,0.908,0.688,1.242c0.315,0.335,0.688,0.607,1.108,0.818
			c0.246,0.141,0.511,0.256,0.793,0.344c0.281,0.088,0.563,0.148,0.845,0.186c0.176,0.033,0.361,0.061,0.556,0.078
			c0.192,0.02,0.378,0.025,0.555,0.025c2.605,0,4.288-0.748,5.046-2.244c0.757-1.496,1.136-3.32,1.136-5.469v-1.319
			c-1.232,1.269-2.526,2.201-3.884,2.8c-1.354,0.598-2.932,0.898-4.728,0.898c-3.945,0-7.159-1.321-9.644-3.963
			c-2.481-2.644-3.724-5.918-3.724-9.826c0-3.979,1.274-7.423,3.83-10.328c2.553-2.907,5.907-4.359,10.063-4.359
			c1.585,0,3.072,0.29,4.464,0.872c1.392,0.58,2.563,1.54,3.514,2.879l0.105-0.054v-2.853h9.615v24.46H182.72z M162.697,46.575
			c-1.092,1.215-1.638,2.65-1.638,4.307c0,1.727,0.546,3.17,1.638,4.332s2.606,1.742,4.545,1.742c1.972,0,3.494-0.584,4.569-1.75
			c1.073-1.168,1.611-2.617,1.611-4.351c0-1.664-0.538-3.104-1.611-4.326c-1.075-1.219-2.599-1.829-4.569-1.829
			C165.303,44.735,163.788,45.359,162.697,46.575z"/>
		<path fill="#FFFFFF" d="M197.354,23.303c1.058,1.057,1.585,2.325,1.585,3.804s-0.527,2.748-1.585,3.805
			c-1.057,1.056-2.324,1.584-3.804,1.584c-1.48,0-2.747-0.528-3.805-1.584c-1.057-1.057-1.584-2.325-1.584-3.805
			c0-1.493,0.527-2.772,1.584-3.841c1.058-1.067,2.324-1.601,3.805-1.601C195.03,21.701,196.297,22.246,197.354,23.303z
			 M198.358,64.563h-9.614V37.461h9.614V64.563z"/>
		<path fill="#FFFFFF" d="M215.21,64.563h-9.615V45.387h-3.117v-7.926h3.117v-8.136h9.615v8.136h5.44v7.926h-5.44V64.563z"/>
		<path fill="#FFFFFF" d="M253.354,64.563h-9.615v-3.01h-0.104c-0.776,1.268-1.832,2.209-3.171,2.824
			c-1.339,0.617-2.729,0.961-4.174,1.029c-0.142,0.036-0.281,0.055-0.422,0.055c-0.143,0-0.283,0-0.424,0
			c-4.016,0-7.3-1.436-9.854-4.307c-2.554-2.869-3.83-6.242-3.83-10.115c0-3.875,1.259-7.248,3.777-10.119
			c2.519-2.869,5.785-4.306,9.801-4.306c0.176,0,0.352,0,0.528,0c0.176,0,0.352,0.018,0.527,0.054
			c1.373,0.104,2.721,0.448,4.041,1.029c1.321,0.582,2.421,1.4,3.303,2.458V37.46h9.615L253.354,64.563L253.354,64.563z
			 M233.331,46.786c-1.093,1.217-1.639,2.65-1.639,4.307c0,1.727,0.546,3.171,1.639,4.332c1.092,1.162,2.604,1.744,4.544,1.744
			c1.972,0,3.494-0.584,4.568-1.752c1.074-1.166,1.611-2.617,1.611-4.352c0-1.663-0.537-3.104-1.611-4.322
			c-1.074-1.222-2.598-1.832-4.568-1.832C235.936,44.945,234.422,45.571,233.331,46.786z"/>
		<path fill="#FFFFFF" d="M269.362,64.563h-9.614v-43.85h9.614V64.563z"/>
		<path fill="#FFFFFF" d="M280.296,24.729h10.196l8.083,21.291l8.56-21.291h10.302l6.023,39.834h-10.354l-2.906-22.927h-0.104
			l-9.563,22.928h-4.119l-9.141-22.928h-0.105l-3.328,22.928h-10.302L280.296,24.729z"/>
		<path fill="#FFFFFF" d="M355.475,51.62v1.004H335.24c0,1.974,0.512,3.479,1.533,4.518c1.021,1.041,2.517,1.561,4.489,1.561
			c1.021,0,1.911-0.193,2.669-0.582c0.757-0.389,1.398-1.021,1.929-1.902h9.244c-0.774,3.224-2.491,5.568-5.15,7.039
			s-5.539,2.207-8.638,2.207c-4.474,0-8.207-1.223-11.201-3.672c-2.993-2.449-4.489-6.014-4.489-10.699
			c0-4.508,1.399-8.047,4.199-10.618c2.801-2.571,6.4-3.856,10.805-3.856c4.72,0,8.374,1.356,10.963,4.067
			c2.589,2.712,3.883,6.376,3.883,10.989L355.475,51.62L355.475,51.62z M346.547,47.077c-0.247-1.268-0.892-2.289-1.93-3.064
			c-1.039-0.773-2.211-1.16-3.514-1.16c-1.408,0-2.642,0.354-3.698,1.068c-1.057,0.713-1.726,1.765-2.007,3.157H346.547z"/>
	</g>
	<g>
		<path fill="#FFFFFF" d="M53.278,32.141c-2.789-2.789-7.327-2.789-10.115,0l-1.672,1.672c-0.888,0.888-0.888,2.328,0,3.216
			c0.888,0.889,2.329,0.889,3.217,0l1.672-1.672c1.015-1.015,2.666-1.015,3.68,0c1.015,1.015,1.015,2.666,0,3.681L30.307,58.792
			c-0.889,0.889-0.889,2.328,0,3.217c0.888,0.889,2.329,0.889,3.217,0l19.752-19.753C56.066,39.466,56.066,34.929,53.278,32.141z"/>
		<path fill="#FFFFFF" d="M26.627,55.111l10.03-10.031c0.994,0.081,2.015-0.258,2.775-1.018c1.374-1.374,1.374-3.601,0-4.975
			s-3.601-1.373-4.974,0c-0.76,0.76-1.099,1.782-1.018,2.775L23.409,51.894c-0.888,0.887-0.888,2.328,0,3.217
			C24.298,55.999,25.738,55.999,26.627,55.111z"/>
		<path fill="#FFFFFF" d="M67.928,46.081c-0.369,1.2,0.306,2.473,1.506,2.842c0.834,0.256,1.703,0.011,2.279-0.566
			c0.253-0.254,0.451-0.572,0.564-0.938c2.991-9.739,0.378-20.259-6.819-27.458c-3.229-3.229-7.238-5.617-11.593-6.904
			c-1.205-0.356-2.47,0.332-2.826,1.537c-0.356,1.205,0.332,2.47,1.537,2.826c3.628,1.073,6.97,3.063,9.665,5.758
			C68.245,29.181,70.424,37.957,67.928,46.081z"/>
		<path fill="#FFFFFF" d="M12.299,40.783l17.606-17.607c2.748-2.748,6.087-4.72,9.764-5.787c1.378,1.033,3.341,0.923,4.593-0.33
			c1.374-1.373,1.374-3.6,0-4.974c-1.374-1.374-3.6-1.374-4.975,0c-0.26,0.261-0.471,0.552-0.633,0.863
			c-4.512,1.261-8.607,3.652-11.967,7.012L9.082,37.566c-0.889,0.888-0.889,2.329,0,3.217C9.97,41.671,11.41,41.671,12.299,40.783z"
			/>
		<path fill="#FFFFFF" d="M73.589,19.628c-1.061,0.674-1.375,2.079-0.702,3.14c8.192,12.915,6.277,30.149-4.556,40.981l-2.314,2.315
			c-0.889,0.888-0.889,2.328,0,3.217c0.888,0.888,2.329,0.888,3.217,0l2.314-2.314c3.096-3.097,5.601-6.659,7.446-10.587
			c1.783-3.798,2.908-7.848,3.346-12.037c0.878-8.395-1.115-16.923-5.613-24.012C76.055,19.27,74.65,18.955,73.589,19.628z"/>
		<path fill="#FFFFFF" d="M5.135,33.619L19.354,19.4c0.888-0.888,0.888-2.328,0-3.217c-0.889-0.888-2.329-0.888-3.218,0
			L1.918,30.402c-0.888,0.888-0.888,2.329,0,3.217C2.806,34.508,4.247,34.508,5.135,33.619z"/>
		<path fill="#FFFFFF" d="M68.378,11.039c-2.627-2.097-5.509-3.823-8.601-5.145c-3.815-1.632-7.855-2.614-12.011-2.92
			C40.095,2.41,32.379,4.238,25.814,8.138c-1.167-0.3-2.456,0.004-3.37,0.917c-1.374,1.374-1.374,3.601,0,4.975s3.601,1.374,4.974,0
			c0.604-0.604,0.941-1.372,1.015-2.16c11.733-6.846,26.349-5.792,36.983,2.624c-0.003,0.905,0.339,1.813,1.03,2.503
			c1.374,1.374,3.601,1.374,4.974,0c1.374-1.374,1.374-3.601,0-4.974C70.593,11.195,69.453,10.867,68.378,11.039z"/>
		<path fill="#FFFFFF" d="M59.428,70.895c-0.76,0.76-1.099,1.781-1.018,2.773l-6.613,6.613c-0.888,0.889-0.888,2.329,0,3.218
			c0.889,0.888,2.329,0.888,3.218,0l6.613-6.613c0.993,0.082,2.014-0.258,2.774-1.018c1.373-1.374,1.373-3.6,0-4.974
			C63.029,69.52,60.802,69.52,59.428,70.895z"/>
		<path fill="#FFFFFF" d="M43.13,60.294l-5.66,5.66c-0.888,0.889-0.888,2.328,0,3.217c0.889,0.889,2.329,0.889,3.217,0l5.659-5.66
			c0.994,0.081,2.015-0.256,2.775-1.017c1.374-1.373,1.374-3.601,0-4.974c-1.374-1.374-3.6-1.374-4.974,0
			C43.388,58.281,43.049,59.302,43.13,60.294z"/>
		<path fill="#FFFFFF" d="M49.748,74.439l15.71-15.709c0.551-0.553,1.084-1.133,1.585-1.727c0.81-0.959,0.688-2.395-0.272-3.205
			s-2.394-0.689-3.206,0.271c-0.418,0.496-0.864,0.981-1.325,1.442l-15.71,15.709c-0.993-0.08-2.014,0.259-2.774,1.019
			c-1.374,1.374-1.374,3.601,0,4.975c1.374,1.374,3.601,1.374,4.974,0C49.49,76.455,49.829,75.432,49.748,74.439z"/>
		<path fill="#FFFFFF" d="M20.341,48.825c0.76-0.76,1.099-1.781,1.018-2.774l16.784-16.784c4.964-4.964,13.043-4.964,18.007,0
			c4.965,4.965,4.965,13.043,0,18.007l-4.762,4.764c-0.888,0.888-0.888,2.328,0,3.217c0.889,0.888,2.328,0.888,3.217,0l4.763-4.762
			c6.738-6.74,6.738-17.704,0-24.442c-6.739-6.739-17.704-6.739-24.442,0L18.142,42.833c-0.993-0.081-2.015,0.258-2.774,1.018
			c-1.374,1.373-1.374,3.601,0,4.974C16.741,50.199,18.968,50.199,20.341,48.825z"/>
	</g>
</g>
</svg>
