<?xml version="1.0" encoding="utf-8"?>
<!-- Generator: Adobe Illustrator 16.0.2, SVG Export Plug-In . SVG Version: 6.00 Build 0)  -->
<!DOCTYPE svg PUBLIC "-//W3C//DTD SVG 1.1//EN" "http://www.w3.org/Graphics/SVG/1.1/DTD/svg11.dtd">
<svg version="1.1" id="Layer_1" xmlns="http://www.w3.org/2000/svg" xmlns:xlink="http://www.w3.org/1999/xlink" x="0px" y="0px"
	 width="32px" height="32px" viewBox="0 0 32 32" enable-background="new 0 0 32 32" xml:space="preserve">
<g id="search_1_">
	<path fill="#FFFFFF" d="M18.334,4.612c-5.672,0-10.271,4.598-10.271,10.27c0,1.734,0.434,3.367,1.194,4.8l-7.142,7.139l0.006,0.005
		c-0.558,0.549-0.905,1.309-0.905,2.153c0,1.668,1.352,3.021,3.02,3.021c0.843,0,1.604-0.347,2.153-0.906l-0.001-0.001l7.138-7.139
		c1.435,0.764,3.069,1.195,4.808,1.195c5.67,0,10.27-4.597,10.27-10.27C28.604,9.208,24.004,4.612,18.334,4.612z M18.334,22.097
		c-3.983,0-7.213-3.231-7.213-7.213c0-3.983,3.229-7.212,7.213-7.212c3.981,0,7.213,3.229,7.213,7.212
		C25.547,18.865,22.315,22.097,18.334,22.097z"/>
</g>
</svg>
