<?xml version="1.0" encoding="utf-8"?>
<!-- Generator: Adobe Illustrator 16.0.2, SVG Export Plug-In . SVG Version: 6.00 Build 0)  -->
<!DOCTYPE svg PUBLIC "-//W3C//DTD SVG 1.1//EN" "http://www.w3.org/Graphics/SVG/1.1/DTD/svg11.dtd">
<svg version="1.1" id="Layer_1" xmlns="http://www.w3.org/2000/svg" xmlns:xlink="http://www.w3.org/1999/xlink" x="0px" y="0px"
	 width="32px" height="32px" viewBox="0 0 32 32" enable-background="new 0 0 32 32" xml:space="preserve">
<path fill="#FFFFFF" d="M3.556,4.039c-1.103,0-2,0.897-2,2s0.897,2,2,2h24.887c1.103,0,2-0.897,2-2s-0.897-2-2-2H3.556z"/>
<path fill="#FFFFFF" d="M3.556,14c-1.103,0-2,0.897-2,2c0,1.103,0.897,2,2,2h24.887c1.103,0,2-0.897,2-2c0-1.103-0.897-2-2-2H3.556z
	"/>
<path fill="#FFFFFF" d="M3.556,23.961c-1.103,0-2,0.897-2,2s0.897,2,2,2h24.887c1.103,0,2-0.897,2-2s-0.897-2-2-2H3.556z"/>
</svg>
